# This file uses centimeters as units for non-parametric coordinates.

mtllib stone_tile_exp.mtl
g default
v -1.503648 -0.008259 1.496436
v 1.406208 0.081216 1.628357
v -1.358907 0.191859 1.327546
v 1.498387 0.281649 1.553607
v -1.314229 0.236893 -1.524274
v 1.553313 0.250428 -1.372243
v -1.545810 0.034469 -1.402370
v 1.629816 0.049994 -1.502700
v 1.044533 0.281649 1.572549
v 1.124384 0.250428 -1.502700
v 1.124384 0.049994 -1.662700
v 1.044533 0.081216 1.572549
v 0.539100 0.308193 1.651510
v 0.618951 0.250428 -1.502700
v 0.618951 0.049994 -1.536973
v 0.539100 0.081216 1.572549
v 0.071314 0.190288 1.493187
v 0.112318 0.259076 -1.652434
v 0.112305 0.056644 -1.565677
v 0.072251 0.035062 1.493473
v -0.396514 0.183771 1.403530
v -0.453847 0.274924 -1.685175
v -0.453121 0.070161 -1.720000
v -0.396620 -0.017829 1.401314
v -0.901563 0.089481 1.477460
v -1.013927 0.252121 -1.610776
v -1.013927 0.049467 -1.574599
v -0.901746 -0.012098 1.412159
v 1.726841 0.250428 -0.997267
v 1.124384 0.242189 -0.997267
v 0.736029 0.326003 -0.997267
v 0.112297 0.240794 -1.067607
v -0.453018 0.242042 -1.110283
v -1.013927 0.194270 -1.069745
v -1.400475 0.245795 -1.049991
v -1.519359 0.034469 -1.011255
v -1.013927 0.028599 -1.065824
v -0.452703 0.016821 -1.099373
v 0.112290 0.037242 -1.025414
v 0.618951 0.049994 -0.997267
v 1.124384 0.049994 -0.997267
v 1.654893 0.049994 -0.997267
v 1.572088 0.252939 -0.498750
v 1.066656 0.252939 -0.498750
v 0.557865 0.253085 -0.499152
v 0.048117 0.213824 -0.516694
v -0.489038 0.102946 -0.542228
v -1.013927 0.202977 -0.544559
v -1.519359 0.161823 -0.544559
v -1.519359 0.034469 -0.544559
v -1.013927 0.004115 -0.544559
v -0.487194 -0.033268 -0.542007
v 0.054451 0.014989 -0.515864
v 0.561223 0.052505 -0.498750
v 1.066656 0.052505 -0.498750
v 1.664893 0.052510 -0.498763
v 1.516298 0.255365 0.000000
v 1.010865 0.255365 0.000000
v 0.522899 0.213858 -0.066950
v 0.051772 0.202043 -0.066242
v -0.454583 0.164155 -0.086699
v -0.966590 0.189931 -0.080897
v -1.465448 0.203846 -0.086699
v -1.451701 0.003412 -0.086699
v -0.960016 -0.013158 -0.086699
v -0.454583 -0.033047 -0.086699
v 0.049043 0.004452 -0.063834
v 0.526031 0.043066 -0.018177
v 1.010865 0.054932 0.000000
v 1.492567 0.054932 0.000000
v 1.458324 0.164293 0.531799
v 1.027412 0.268283 0.533078
v 0.572570 0.236169 0.482846
v 0.113580 0.127014 0.398601
v -0.398801 0.170503 0.369509
v -0.903099 0.281611 0.694495
v -1.409666 0.171711 0.369509
v -1.409666 -0.028722 0.369509
v -0.904233 -0.028722 0.369509
v -0.398801 -0.029382 0.369509
v 0.108349 -0.010995 0.403215
v 0.571069 0.037351 0.485583
v 1.027412 0.067850 0.533078
v 1.532844 0.067850 0.533078
v 1.549966 0.281649 1.067116
v 1.044533 0.281649 1.067116
v 0.556934 0.218351 1.059994
v 0.070419 0.229837 0.977023
v -0.398106 0.173986 0.879364
v -0.902493 0.183344 0.897184
v -1.408109 0.182117 0.894839
v -1.408109 -0.018316 0.894839
v -0.902676 -0.018316 0.894839
v -0.398420 -0.028425 0.875578
v 0.070166 0.028261 0.974823
v 0.556267 0.071327 1.051968
v 1.044533 0.081216 1.067116
v 1.549966 0.081216 1.067116
vt 0.519021 0.902756
vt 0.502865 0.128250
vt 0.886992 0.890054
vt 0.045081 0.945622
vt 0.114413 0.879519
vt 0.607436 0.857885
vt 0.974629 0.800494
vt 0.499132 0.923851
vt 0.960308 0.099992
vt 0.931986 0.019102
vt 0.580181 0.048705
vt 0.582107 0.126123
vt 0.478589 0.483441
vt 0.228330 0.121032
vt 0.198541 0.119331
vt 0.041899 0.504860
vt 0.034575 0.573646
vt 0.111726 0.579001
vt 0.981696 0.427277
vt 0.505837 0.596219
vt 0.491027 0.529238
vt 0.959135 0.505311
vt 0.485678 0.427820
vt 0.563101 0.425792
vt 0.015771 0.649335
vt 0.107260 0.654119
vt 0.960501 0.350341
vt 0.500544 0.673549
vt 0.483627 0.350400
vt 0.563438 0.350956
vt 0.035918 0.723908
vt 0.114653 0.729280
vt 0.963036 0.272614
vt 0.517756 0.752374
vt 0.494003 0.278233
vt 0.573423 0.275950
vt 0.044484 0.796024
vt 0.124516 0.802636
vt 0.984770 0.185417
vt 0.516886 0.839111
vt 0.506459 0.205597
vt 0.586999 0.203305
vt 0.428747 0.589905
vt 0.435821 0.498378
vt 0.424365 0.649861
vt 0.428415 0.746034
vt 0.429280 0.832669
vt 0.416118 0.918249
vt 0.902413 0.813220
vt 0.872165 0.024515
vt 0.882306 0.101763
vt 0.889369 0.187697
vt 0.880221 0.274653
vt 0.877833 0.352421
vt 0.879768 0.429844
vt 0.233650 0.432879
vt 0.351869 0.593643
vt 0.357893 0.516469
vt 0.346080 0.671486
vt 0.343399 0.749739
vt 0.340627 0.833252
vt 0.335639 0.913929
vt 0.826518 0.838502
vt 0.800644 0.026044
vt 0.802334 0.103588
vt 0.803645 0.184375
vt 0.801859 0.267667
vt 0.801239 0.345538
vt 0.803172 0.422936
vt 0.232116 0.358668
vt 0.274835 0.596367
vt 0.281448 0.519225
vt 0.279473 0.672162
vt 0.274693 0.744437
vt 0.271832 0.822320
vt 0.265301 0.901043
vt 0.756115 0.839332
vt 0.730579 0.038210
vt 0.732314 0.113563
vt 0.734123 0.191048
vt 0.732593 0.268477
vt 0.727467 0.341959
vt 0.726525 0.416319
vt 0.228542 0.280192
vt 0.193243 0.587880
vt 0.198877 0.520529
vt 0.195759 0.657861
vt 0.204041 0.730281
vt 0.203035 0.808410
vt 0.148140 0.882318
vt 0.687082 0.851355
vt 0.660669 0.046452
vt 0.662592 0.123875
vt 0.664502 0.201312
vt 0.661272 0.279152
vt 0.650424 0.350723
vt 0.644878 0.420975
vt 0.229515 0.200590
vt 0.565142 0.503198
vt 0.543834 0.956012
vt 0.235387 0.035073
vt 0.610528 0.888212
vt 0.487653 0.036375
vt 0.110696 0.956908
vt 0.191420 0.964165
vt 0.116347 0.501794
vt 0.211376 0.201047
vt 0.646908 0.498400
vt 0.690174 0.881682
vt 0.260588 0.977407
vt 0.198501 0.280797
vt 0.728420 0.490101
vt 0.758998 0.869752
vt 0.330087 0.991159
vt 0.199388 0.355503
vt 0.805491 0.514563
vt 0.828522 0.857767
vt 0.409496 0.977586
vt 0.201949 0.433169
vt 0.881814 0.511103
vt 0.899121 0.850420
vt 0.482645 0.968724
vt 0.312802 0.495258
vt 0.888979 0.908046
vt 0.813874 0.917834
vt 0.279408 0.098265
vt 0.278501 0.186021
vt 0.310447 0.101054
vt 0.309938 0.186655
vt 0.025116 0.873075
vt 0.809212 0.887975
vt 0.741872 0.920860
vt 0.273100 0.274608
vt 0.306373 0.272467
vt 0.738487 0.897838
vt 0.670666 0.924785
vt 0.270591 0.351396
vt 0.301361 0.352298
vt 0.662823 0.889625
vt 0.597100 0.942898
vt 0.260304 0.429569
vt 0.299121 0.428780
vt 0.589917 0.913724
vt 0.246208 0.507160
vt 0.202690 0.046621
vt 0.523292 0.927778
vt 0.280087 0.013601
vt 0.960231 0.881311
vt 0.211233 0.493974
vt 0.277014 0.508069
vt 0.310115 0.053689
vt 0.958701 0.848226
vt 0.979003 0.922043
vt 0.541393 0.863130
vn -0.024742 0.335256 0.941802
vn 0.037637 0.070088 0.996831
vn 0.036935 0.073174 0.996635
vn -0.024742 0.335256 0.941802
vn 0.091962 0.992712 0.077886
vn -0.003813 0.997024 0.077005
vn 0.002727 0.995284 0.096965
vn -0.016596 0.995118 0.097287
vn -0.283942 -0.203350 -0.937030
vn -0.230892 -0.085185 -0.969243
vn -0.235555 -0.095275 -0.967180
vn -0.283942 -0.203350 -0.937030
vn -0.001330 -0.999859 0.016746
vn -0.006827 -0.999859 0.015341
vn -0.007985 -0.999854 0.015136
vn -0.002376 -0.999894 0.014342
vn 0.965449 -0.188440 0.179996
vn 0.998852 -0.001562 0.047884
vn 0.998000 -0.018973 0.060299
vn 0.965449 -0.188440 0.179996
vn -0.986041 0.164849 -0.023411
vn -0.945738 0.321288 -0.048520
vn -0.945738 0.321288 -0.048520
vn -0.985338 0.168909 -0.024061
vn -0.024196 0.998626 -0.046493
vn 0.000000 1.000000 0.000000
vn 0.055512 0.996218 -0.066850
vn -0.009004 0.998473 -0.054496
vn 0.069090 0.529549 -0.845461
vn 0.081255 0.535244 -0.840780
vn 0.237643 0.599264 -0.764466
vn 0.237643 0.599264 -0.764466
vn 0.004891 -0.999976 0.004891
vn 0.012275 -0.999729 0.019786
vn 0.000000 -0.999897 0.014372
vn 0.000000 -1.000000 -0.000000
vn 0.023161 -0.023387 0.999458
vn 0.022223 -0.020359 0.999546
vn -0.044311 0.192970 0.980204
vn -0.044311 0.192970 0.980204
vn -0.069244 0.995443 -0.065571
vn -0.082936 0.995266 -0.050676
vn 0.022982 0.177401 -0.983870
vn 0.023528 0.176316 -0.984052
vn 0.048280 -0.998744 0.013390
vn 0.056367 -0.997826 0.034145
vn -0.045584 -0.189916 0.980742
vn -0.063624 -0.191025 0.979521
vn -0.088270 0.995964 -0.016276
vn -0.066256 0.996675 -0.047418
vn 0.164378 -0.125963 -0.978322
vn 0.163752 -0.125817 -0.978445
vn 0.100215 -0.994824 0.016791
vn 0.090361 -0.995243 0.036415
vn -0.201390 -0.113312 0.972935
vn -0.200188 -0.100643 0.974575
vn -0.074592 0.995776 0.053543
vn -0.006293 0.999732 0.022280
vn -0.016591 -0.065429 -0.997719
vn -0.016553 -0.065443 -0.997719
vn 0.050204 -0.998608 0.016176
vn 0.037378 -0.999066 0.021678
vn -0.061043 -0.101679 0.992943
vn -0.046289 -0.112396 0.992585
vn 0.038082 0.999273 -0.002005
vn -0.008259 0.999958 -0.003979
vn -0.009405 0.999893 0.011210
vn 0.047960 0.998122 -0.038102
vn 0.005500 0.999939 0.009545
vn -0.008901 0.998371 -0.056353
vn -0.066499 0.996556 0.049532
vn -0.017605 0.999826 0.006158
vn -0.026268 0.995291 0.093305
vn -0.019572 0.997903 0.061701
vn 0.013609 0.996129 0.086843
vn -0.020623 0.997123 0.072942
vn 0.030186 0.997305 0.066864
vn 0.060906 0.996723 0.053226
vn -0.773032 0.631531 -0.059909
vn -0.866759 0.493190 -0.074114
vn -0.839831 0.538334 -0.069858
vn -0.773032 0.631531 -0.059909
vn 0.003706 -0.999722 -0.023291
vn -0.000424 -0.998683 -0.051307
vn -0.020878 -0.998602 -0.048560
vn -0.018286 -0.999543 -0.024086
vn 0.009933 -0.997842 -0.064911
vn 0.008230 -0.997914 -0.064033
vn 0.035867 -0.998551 -0.040128
vn 0.013970 -0.998916 -0.044416
vn 0.013129 -0.999894 -0.006256
vn 0.003137 -0.999963 -0.008015
vn 0.000001 -0.999997 0.002362
vn 0.000000 -1.000000 -0.000000
vn 0.000002 -0.999997 0.002487
vn 0.000000 -1.000000 -0.000000
vn 0.997423 0.066949 -0.025799
vn 0.997267 0.067345 -0.030399
vn 0.972169 0.082416 -0.219304
vn 0.972170 0.082417 -0.219304
vn 0.011199 0.999668 0.023194
vn -0.004344 0.999933 -0.010718
vn -0.047493 0.997048 0.060328
vn -0.105650 0.992575 0.060282
vn -0.015793 0.998692 0.048638
vn 0.039026 0.998721 0.032138
vn -0.007771 0.999757 0.020645
vn -0.988324 0.151338 0.017671
vn -0.987200 0.158956 0.013044
vn -0.046372 -0.998083 -0.040988
vn -0.041585 -0.998537 -0.034575
vn 0.009383 -0.999023 -0.043183
vn 0.069286 -0.997167 -0.029283
vn 0.034844 -0.999359 -0.008271
vn 0.002613 -0.999993 0.002599
vn 0.000004 -0.999988 0.004964
vn 0.976341 0.112987 0.184371
vn 0.977762 0.106975 0.180381
vn -0.003892 0.999825 0.018304
vn 0.051316 0.998128 0.033265
vn -0.077398 0.996424 0.033896
vn -0.078629 0.996202 0.037412
vn 0.027772 0.998783 -0.040750
vn 0.028664 0.997952 -0.057194
vn -0.055727 0.997845 -0.034637
vn -0.992541 -0.037277 0.116068
vn -0.992459 -0.037450 0.116715
vn -0.035073 -0.998929 -0.030164
vn -0.032964 -0.998290 -0.048276
vn 0.016247 -0.999767 -0.014183
vn 0.077039 -0.996820 -0.020368
vn 0.058499 -0.998197 -0.013446
vn 0.014188 -0.999876 0.006908
vn 0.000002 -0.999906 0.013732
vn 0.975462 0.167637 0.142728
vn 0.976293 0.167747 0.136793
vn 0.009129 0.999791 -0.018285
vn 0.110294 0.993469 -0.029242
vn -0.096524 0.995186 -0.016993
vn -0.059665 0.998147 -0.011957
vn 0.060189 0.997834 -0.026529
vn 0.013528 0.999226 0.036944
vn -0.096185 0.995349 -0.005405
vn -0.998657 -0.015638 0.049393
vn -0.998567 -0.016180 0.051004
vn -0.011435 -0.999921 -0.005162
vn -0.007909 -0.999876 -0.013653
vn 0.026034 -0.999645 0.005644
vn 0.078433 -0.996803 0.015257
vn 0.065039 -0.997545 0.025942
vn 0.020427 -0.999472 0.025251
vn 0.000000 -0.999696 0.024642
vn 0.977295 0.205879 -0.050077
vn 0.977038 0.206673 -0.051793
s 1
g pCube1
usemtl initialShadingGroup
f 1/153/1 28/124/2 25/3/3 3/148/4
s 2
f 3/4/5 25/130/6 90/5/7 91/104/8
s 3
f 5/151/9 26/128/10 27/126/11 7/147/12
s 4
f 92/11/13 93/12/14 28/2/15 1/103/16
s 5
f 2/101/17 98/14/18 85/15/19 4/145/20
s 6
f 92/102/21 1/1/22 3/154/23 91/6/24
s 2
f 9/17/25 4/16/26 85/106/27 86/18/28
s 3
f 11/141/29 10/142/30 6/123/31 8/150/32
s 4
f 12/23/33 97/24/34 98/99/35 2/13/36
s 1
f 9/143/37 12/140/38 2/100/39 4/146/40
s 2
f 13/25/41 9/17/25 86/18/28 87/26/42
s 3
f 15/137/43 14/138/44 10/142/30 11/141/29
s 4
f 16/29/45 96/30/46 97/24/34 12/23/33
s 1
f 13/139/47 16/136/48 12/140/38 9/143/37
s 2
f 17/31/49 13/25/41 87/26/42 88/32/50
s 3
f 19/133/51 18/134/52 14/138/44 15/137/43
s 4
f 20/35/53 95/36/54 96/30/46 16/29/45
s 1
f 17/135/55 20/132/56 16/136/48 13/139/47
s 2
f 21/37/57 17/31/49 88/32/50 89/38/58
s 3
f 23/127/59 22/129/60 18/134/52 19/133/51
s 4
f 24/41/61 94/42/62 95/36/54 20/35/53
s 1
f 21/131/63 24/125/64 20/132/56 17/135/55
s 2
f 25/130/6 21/37/57 89/38/58 90/5/7
s 3
f 27/126/11 26/128/10 22/129/60 23/127/59
s 4
f 28/2/15 93/12/14 94/42/62 24/41/61
s 1
f 25/3/3 28/124/2 24/125/64 21/131/63
s 2
f 30/43/65 29/44/66 6/21/67 10/20/68
f 31/45/69 30/43/65 10/20/68 14/28/70
f 32/46/71 31/45/69 14/28/70 18/34/72
f 33/47/73 32/46/71 18/34/72 22/40/74
f 34/48/75 33/47/73 22/40/74 26/8/76
f 35/118/77 34/48/75 26/8/76 5/122/78
s 6
f 7/152/79 36/121/80 35/49/81 5/7/82
s 4
f 7/10/83 27/9/84 37/51/85 36/50/86
f 38/52/87 37/51/85 27/9/84 23/39/88
f 39/53/89 38/52/87 23/39/88 19/33/90
f 40/54/91 39/53/89 19/33/90 15/27/92
f 41/55/93 40/54/91 15/27/92 11/19/94
f 42/120/95 41/55/93 11/19/94 8/22/96
s 5
f 29/119/97 42/56/98 8/144/99 6/149/100
s 2
f 44/57/101 43/58/102 29/44/66 30/43/65
f 45/59/103 44/57/101 30/43/65 31/45/69
f 46/60/104 45/59/103 31/45/69 32/46/71
f 47/61/105 46/60/104 32/46/71 33/47/73
f 48/62/106 47/61/105 33/47/73 34/48/75
f 49/114/107 48/62/106 34/48/75 35/118/77
s 6
f 36/121/80 50/117/108 49/63/109 35/49/81
s 4
f 36/50/86 37/51/85 51/65/110 50/64/111
f 52/66/112 51/65/110 37/51/85 38/52/87
f 53/67/113 52/66/112 38/52/87 39/53/89
f 54/68/114 53/67/113 39/53/89 40/54/91
f 55/69/115 54/68/114 40/54/91 41/55/93
f 56/116/116 55/69/115 41/55/93 42/120/95
s 5
f 43/115/117 56/70/118 42/56/98 29/119/97
s 2
f 58/71/119 57/72/120 43/58/102 44/57/101
f 59/73/121 58/71/119 44/57/101 45/59/103
f 60/74/122 59/73/121 45/59/103 46/60/104
f 61/75/123 60/74/122 46/60/104 47/61/105
f 62/76/124 61/75/123 47/61/105 48/62/106
f 63/110/125 62/76/124 48/62/106 49/114/107
s 6
f 50/117/108 64/113/126 63/77/127 49/63/109
s 4
f 50/64/111 51/65/110 65/79/128 64/78/129
f 66/80/130 65/79/128 51/65/110 52/66/112
f 67/81/131 66/80/130 52/66/112 53/67/113
f 68/82/132 67/81/131 53/67/113 54/68/114
f 69/83/133 68/82/132 54/68/114 55/69/115
f 70/112/134 69/83/133 55/69/115 56/116/116
s 5
f 57/111/135 70/84/136 56/70/118 43/115/117
s 2
f 72/85/137 71/86/138 57/72/120 58/71/119
f 73/87/139 72/85/137 58/71/119 59/73/121
f 74/88/140 73/87/139 59/73/121 60/74/122
f 75/89/141 74/88/140 60/74/122 61/75/123
f 76/90/142 75/89/141 61/75/123 62/76/124
f 77/105/143 76/90/142 62/76/124 63/110/125
s 6
f 64/113/126 78/109/144 77/91/145 63/77/127
s 4
f 64/78/129 65/79/128 79/93/146 78/92/147
f 80/94/148 79/93/146 65/79/128 66/80/130
f 81/95/149 80/94/148 66/80/130 67/81/131
f 82/96/150 81/95/149 67/81/131 68/82/132
f 83/97/151 82/96/150 68/82/132 69/83/133
f 84/108/152 83/97/151 69/83/133 70/112/134
s 5
f 71/107/153 84/98/154 70/84/136 57/111/135
s 2
f 86/18/28 85/106/27 71/86/138 72/85/137
f 87/26/42 86/18/28 72/85/137 73/87/139
f 88/32/50 87/26/42 73/87/139 74/88/140
f 89/38/58 88/32/50 74/88/140 75/89/141
f 90/5/7 89/38/58 75/89/141 76/90/142
f 91/104/8 90/5/7 76/90/142 77/105/143
s 6
f 78/109/144 92/102/21 91/6/24 77/91/145
s 4
f 78/92/147 79/93/146 93/12/14 92/11/13
f 94/42/62 93/12/14 79/93/146 80/94/148
f 95/36/54 94/42/62 80/94/148 81/95/149
f 96/30/46 95/36/54 81/95/149 82/96/150
f 97/24/34 96/30/46 82/96/150 83/97/151
f 98/99/35 97/24/34 83/97/151 84/108/152
s 5
f 85/15/19 98/14/18 84/98/154 71/107/153
